<svg width="62" height="2380" viewBox="0 0 62 2380" fill="none" xmlns="http://www.w3.org/2000/svg">
<path d="M58 0V2292L56 2292.16C56 2304.15 51.4178 2310.24 39.2126 2316.78L20.5152 2326.72C6.68691 2334.09 0 2341.98 0 2353.97V2354.99C0 2370 9.99791 2380 29.4743 2380C49.2105 2380 60.0523 2369.61 60.312 2351.66H54.2743C54.0147 2367.37 45.3152 2375.38 29.6691 2375.38C14.2178 2375.38 6.16754 2367.43 6.16754 2354.86V2353.97C6.16754 2343.26 12.4 2336.72 24.2806 2330.37L43.3675 2320.18C55.378 2313.76 62 2307.54 62 2292.16C62 2292.16 60 2292.26 60 2292C60 1589.25 60 0 60 0H58Z" fill="white"/>
</svg>
